<svg width="13" height="13" viewBox="0 0 13 13" fill="none" xmlns="http://www.w3.org/2000/svg">
<g clip-path="url(#clip0)">
<path d="M9.23463 3.54883C8.49337 3.7036 7.69922 3.79522 6.88086 3.81701V6.07721H9.5597C9.53502 5.18697 9.42394 4.33108 9.23463 3.54883Z" fill="#549BE4"/>
<path d="M2.67813 6.07581C2.70325 5.12563 2.82214 4.20865 3.0259 3.36698C2.35863 3.17967 1.74812 2.93752 1.21866 2.64648C0.493498 3.64714 0.0714829 4.8283 0 6.07581H2.67813Z" fill="#549BE4"/>
<path d="M2.67813 6.83789H0C0.0714829 8.0854 0.493498 9.26656 1.21864 10.2672C1.74809 9.97618 2.35863 9.73403 3.0259 9.54672C2.82214 8.70505 2.70322 7.78807 2.67813 6.83789Z" fill="#549BE4"/>
<path d="M7.59533 0.397841C7.36242 0.200812 7.12327 0.0680801 6.88086 0V3.05464C7.62883 3.03382 8.35241 2.9518 9.02697 2.81467C8.90318 2.43631 8.7593 2.08093 8.59604 1.75444C8.30275 1.1679 7.96605 0.711451 7.59533 0.397841Z" fill="#549BE4"/>
<path d="M3.23017 10.2793C2.67255 10.4359 2.16011 10.6334 1.70996 10.8679C1.7704 10.9334 1.83195 10.9981 1.89533 11.0615C2.62761 11.7938 3.50358 12.3301 4.45968 12.6442C4.19185 12.3277 3.94416 11.9454 3.72207 11.5012C3.53413 11.1253 3.36976 10.7156 3.23017 10.2793Z" fill="#549BE4"/>
<path d="M4.40359 1.75444C4.24036 2.08093 4.09645 2.43631 3.97266 2.81467C4.64721 2.9518 5.3708 3.03382 6.11877 3.05464V0C5.87634 0.0681055 5.63721 0.200812 5.4043 0.397841C5.03355 0.711451 4.69688 1.1679 4.40359 1.75444Z" fill="#549BE4"/>
<path d="M10.3214 6.83789C10.2963 7.78807 10.1774 8.70505 9.97363 9.54672C10.6409 9.73403 11.2514 9.97618 11.7809 10.2672C12.506 9.26656 12.928 8.08543 12.9995 6.83789H10.3214Z" fill="#549BE4"/>
<path d="M9.76957 2.63641C10.3272 2.47981 10.8396 2.28235 11.2898 2.04779C11.2293 1.9823 11.1678 1.91757 11.1044 1.85419C10.3721 1.12194 9.49613 0.585653 8.54004 0.271484C8.80786 0.58804 9.05555 0.97034 9.27765 1.4145C9.46558 1.79037 9.62998 2.20012 9.76957 2.63641Z" fill="#549BE4"/>
<path d="M8.59604 11.1616C8.7593 10.8351 8.90318 10.4797 9.02697 10.1013C8.35242 9.96417 7.62883 9.88215 6.88086 9.86133V12.916C7.12329 12.8479 7.36242 12.7152 7.59533 12.5181C7.96608 12.2045 8.30277 11.7481 8.59604 11.1616Z" fill="#549BE4"/>
<path d="M9.97363 3.3689C10.1774 4.21057 10.2963 5.12756 10.3214 6.07773H12.9995C12.928 4.83023 12.506 3.64907 11.7809 2.64844C11.2514 2.93945 10.6409 3.1816 9.97363 3.3689Z" fill="#549BE4"/>
<path d="M6.88086 6.83789V9.0981C7.69922 9.11988 8.49335 9.2115 9.23463 9.36628C9.42394 8.584 9.53502 7.72814 9.5597 6.83789H6.88086Z" fill="#549BE4"/>
<path d="M6.11927 6.07721V3.81701C5.30091 3.79522 4.50678 3.7036 3.76549 3.54883C3.57618 4.3311 3.46511 5.18697 3.44043 6.07721H6.11927Z" fill="#549BE4"/>
<path d="M3.23017 2.63641C3.36973 2.2001 3.53413 1.79037 3.72207 1.4145C3.94416 0.97034 4.19185 0.588015 4.45968 0.271484C3.50361 0.585653 2.62761 1.12194 1.89533 1.85421C1.83195 1.9176 1.7704 1.98232 1.70996 2.04781C2.16011 2.28235 2.67255 2.47981 3.23017 2.63641Z" fill="#549BE4"/>
<path d="M9.76954 10.2793C9.62998 10.7156 9.46558 11.1253 9.27765 11.5012C9.05555 11.9454 8.80786 12.3277 8.54004 12.6442C9.49611 12.3301 10.3721 11.7938 11.1044 11.0615C11.1678 10.9982 11.2293 10.9334 11.2898 10.8679C10.8396 10.6334 10.3272 10.4359 9.76954 10.2793Z" fill="#549BE4"/>
<path d="M6.11927 6.83789H3.44043C3.46511 7.72816 3.57618 8.58403 3.76549 9.36628C4.50676 9.2115 5.30091 9.11988 6.11927 9.0981V6.83789Z" fill="#549BE4"/>
<path d="M5.4043 12.5181C5.63721 12.7152 5.87636 12.8479 6.11877 12.916V9.86133C5.3708 9.88215 4.64721 9.96417 3.97266 10.1013C4.09645 10.4797 4.24033 10.8351 4.40359 11.1616C4.69688 11.7481 5.03355 12.2045 5.4043 12.5181Z" fill="#549BE4"/>
</g>
<defs>
<clipPath id="clip0">
<rect width="13" height="13" fill="white"/>
</clipPath>
</defs>
</svg>
